<?xml version="1.0" standalone="no"?>
<!DOCTYPE svg PUBLIC "-//W3C//DTD SVG 1.1//EN"
   "http://www.w3.org/Graphics/SVG/1.1/DTD/svg11.dtd">
<svg width="141" height="79" version="1.1"
   xmlns="http://www.w3.org/2000/svg">
   <desc>87654321
   </desc>

   <g id="barcode" fill="#000000">
      <rect x="0" y="0" width="141" height="79" fill="#FFFFFF" />
      <rect x="10.00" y="10.00" width="1.00" height="50.00" />
      <rect x="12.00" y="10.00" width="1.00" height="50.00" />
      <rect x="14.00" y="10.00" width="3.00" height="50.00" />
      <rect x="18.00" y="10.00" width="1.00" height="50.00" />
      <rect x="20.00" y="10.00" width="1.00" height="50.00" />
      <rect x="22.00" y="10.00" width="3.00" height="50.00" />
      <rect x="26.00" y="10.00" width="1.00" height="50.00" />
      <rect x="28.00" y="10.00" width="1.00" height="50.00" />
      <rect x="30.00" y="10.00" width="1.00" height="50.00" />
      <rect x="32.00" y="10.00" width="1.00" height="50.00" />
      <rect x="34.00" y="10.00" width="3.00" height="50.00" />
      <rect x="38.00" y="10.00" width="3.00" height="50.00" />
      <rect x="42.00" y="10.00" width="1.00" height="50.00" />
      <rect x="44.00" y="10.00" width="3.00" height="50.00" />
      <rect x="48.00" y="10.00" width="3.00" height="50.00" />
      <rect x="52.00" y="10.00" width="1.00" height="50.00" />
      <rect x="54.00" y="10.00" width="1.00" height="50.00" />
      <rect x="56.00" y="10.00" width="3.00" height="50.00" />
      <rect x="60.00" y="10.00" width="1.00" height="50.00" />
      <rect x="62.00" y="10.00" width="3.00" height="50.00" />
      <rect x="66.00" y="10.00" width="1.00" height="50.00" />
      <rect x="68.00" y="10.00" width="1.00" height="50.00" />
      <rect x="70.00" y="10.00" width="1.00" height="50.00" />
      <rect x="72.00" y="10.00" width="1.00" height="50.00" />
      <rect x="74.00" y="10.00" width="3.00" height="50.00" />
      <rect x="78.00" y="10.00" width="1.00" height="50.00" />
      <rect x="80.00" y="10.00" width="3.00" height="50.00" />
      <rect x="84.00" y="10.00" width="3.00" height="50.00" />
      <rect x="88.00" y="10.00" width="3.00" height="50.00" />
      <rect x="92.00" y="10.00" width="1.00" height="50.00" />
      <rect x="94.00" y="10.00" width="1.00" height="50.00" />
      <rect x="96.00" y="10.00" width="1.00" height="50.00" />
      <rect x="98.00" y="10.00" width="1.00" height="50.00" />
      <rect x="100.00" y="10.00" width="3.00" height="50.00" />
      <rect x="104.00" y="10.00" width="1.00" height="50.00" />
      <rect x="106.00" y="10.00" width="1.00" height="50.00" />
      <rect x="108.00" y="10.00" width="3.00" height="50.00" />
      <rect x="112.00" y="10.00" width="3.00" height="50.00" />
      <rect x="116.00" y="10.00" width="1.00" height="50.00" />
      <rect x="118.00" y="10.00" width="1.00" height="50.00" />
      <rect x="120.00" y="10.00" width="1.00" height="50.00" />
      <rect x="122.00" y="10.00" width="3.00" height="50.00" />
      <rect x="126.00" y="10.00" width="3.00" height="50.00" />
      <rect x="130.00" y="10.00" width="1.00" height="50.00" />
      <text x="70.50" y="69.00" text-anchor="middle"
         font-family="Helvetica" font-size="8.0" fill="#000000" >
         87654321
      </text>
   </g>
</svg>
