<?xml version="1.0" standalone="no"?>
<!DOCTYPE svg PUBLIC "-//W3C//DTD SVG 1.1//EN"
   "http://www.w3.org/Graphics/SVG/1.1/DTD/svg11.dtd">
<svg width="117" height="79" version="1.1"
   xmlns="http://www.w3.org/2000/svg">
   <desc>87654321
   </desc>

   <g id="barcode" fill="#000000">
      <rect x="0" y="0" width="117" height="79" fill="#FFFFFF" />
      <rect x="10.00" y="10.00" width="4.00" height="50.00" />
      <rect x="15.00" y="10.00" width="1.00" height="50.00" />
      <rect x="17.00" y="10.00" width="1.00" height="50.00" />
      <rect x="19.00" y="10.00" width="3.00" height="50.00" />
      <rect x="23.00" y="10.00" width="1.00" height="50.00" />
      <rect x="27.00" y="10.00" width="1.00" height="50.00" />
      <rect x="29.00" y="10.00" width="1.00" height="50.00" />
      <rect x="31.00" y="10.00" width="1.00" height="50.00" />
      <rect x="35.00" y="10.00" width="3.00" height="50.00" />
      <rect x="39.00" y="10.00" width="1.00" height="50.00" />
      <rect x="43.00" y="10.00" width="3.00" height="50.00" />
      <rect x="47.00" y="10.00" width="1.00" height="50.00" />
      <rect x="49.00" y="10.00" width="3.00" height="50.00" />
      <rect x="53.00" y="10.00" width="3.00" height="50.00" />
      <rect x="57.00" y="10.00" width="1.00" height="50.00" />
      <rect x="59.00" y="10.00" width="1.00" height="50.00" />
      <rect x="61.00" y="10.00" width="3.00" height="50.00" />
      <rect x="65.00" y="10.00" width="3.00" height="50.00" />
      <rect x="69.00" y="10.00" width="3.00" height="50.00" />
      <rect x="75.00" y="10.00" width="1.00" height="50.00" />
      <rect x="77.00" y="10.00" width="1.00" height="50.00" />
      <rect x="79.00" y="10.00" width="1.00" height="50.00" />
      <rect x="83.00" y="10.00" width="1.00" height="50.00" />
      <rect x="85.00" y="10.00" width="3.00" height="50.00" />
      <rect x="89.00" y="10.00" width="3.00" height="50.00" />
      <rect x="93.00" y="10.00" width="1.00" height="50.00" />
      <rect x="95.00" y="10.00" width="3.00" height="50.00" />
      <rect x="99.00" y="10.00" width="4.00" height="50.00" />
      <rect x="104.00" y="10.00" width="1.00" height="50.00" />
      <rect x="106.00" y="10.00" width="1.00" height="50.00" />
      <text x="58.50" y="69.00" text-anchor="middle"
         font-family="Helvetica" font-size="8.0" fill="#000000" >
         87654321
      </text>
   </g>
</svg>
