<?xml version="1.0" standalone="no"?>
<!DOCTYPE svg PUBLIC "-//W3C//DTD SVG 1.1//EN"
   "http://www.w3.org/Graphics/SVG/1.1/DTD/svg11.dtd">
<svg width="123" height="79" version="1.1"
   xmlns="http://www.w3.org/2000/svg">
   <desc>*CODE39*
   </desc>

   <g id="barcode" fill="#000000">
      <rect x="0" y="0" width="123" height="79" fill="#FFFFFF" />
      <rect x="10.00" y="10.00" width="1.00" height="50.00" />
      <rect x="13.00" y="10.00" width="1.00" height="50.00" />
      <rect x="15.00" y="10.00" width="2.00" height="50.00" />
      <rect x="18.00" y="10.00" width="2.00" height="50.00" />
      <rect x="21.00" y="10.00" width="1.00" height="50.00" />
      <rect x="23.00" y="10.00" width="2.00" height="50.00" />
      <rect x="26.00" y="10.00" width="2.00" height="50.00" />
      <rect x="29.00" y="10.00" width="1.00" height="50.00" />
      <rect x="32.00" y="10.00" width="1.00" height="50.00" />
      <rect x="34.00" y="10.00" width="1.00" height="50.00" />
      <rect x="36.00" y="10.00" width="2.00" height="50.00" />
      <rect x="39.00" y="10.00" width="1.00" height="50.00" />
      <rect x="41.00" y="10.00" width="2.00" height="50.00" />
      <rect x="44.00" y="10.00" width="1.00" height="50.00" />
      <rect x="47.00" y="10.00" width="1.00" height="50.00" />
      <rect x="49.00" y="10.00" width="1.00" height="50.00" />
      <rect x="51.00" y="10.00" width="1.00" height="50.00" />
      <rect x="53.00" y="10.00" width="2.00" height="50.00" />
      <rect x="57.00" y="10.00" width="1.00" height="50.00" />
      <rect x="59.00" y="10.00" width="2.00" height="50.00" />
      <rect x="62.00" y="10.00" width="2.00" height="50.00" />
      <rect x="65.00" y="10.00" width="1.00" height="50.00" />
      <rect x="67.00" y="10.00" width="2.00" height="50.00" />
      <rect x="71.00" y="10.00" width="1.00" height="50.00" />
      <rect x="73.00" y="10.00" width="1.00" height="50.00" />
      <rect x="75.00" y="10.00" width="2.00" height="50.00" />
      <rect x="78.00" y="10.00" width="2.00" height="50.00" />
      <rect x="82.00" y="10.00" width="1.00" height="50.00" />
      <rect x="84.00" y="10.00" width="1.00" height="50.00" />
      <rect x="86.00" y="10.00" width="1.00" height="50.00" />
      <rect x="88.00" y="10.00" width="1.00" height="50.00" />
      <rect x="90.00" y="10.00" width="2.00" height="50.00" />
      <rect x="94.00" y="10.00" width="1.00" height="50.00" />
      <rect x="96.00" y="10.00" width="2.00" height="50.00" />
      <rect x="99.00" y="10.00" width="1.00" height="50.00" />
      <rect x="101.00" y="10.00" width="1.00" height="50.00" />
      <rect x="104.00" y="10.00" width="1.00" height="50.00" />
      <rect x="106.00" y="10.00" width="2.00" height="50.00" />
      <rect x="109.00" y="10.00" width="2.00" height="50.00" />
      <rect x="112.00" y="10.00" width="1.00" height="50.00" />
      <text x="61.50" y="69.00" text-anchor="middle"
         font-family="Helvetica" font-size="8.0" fill="#000000" >
         *CODE39*
      </text>
   </g>
</svg>
