<?xml version="1.0" standalone="no"?>
<!DOCTYPE svg PUBLIC "-//W3C//DTD SVG 1.1//EN"
   "http://www.w3.org/Graphics/SVG/1.1/DTD/svg11.dtd">
<svg width="201" height="79" version="1.1"
   xmlns="http://www.w3.org/2000/svg">
   <desc>Code 39e
   </desc>

   <g id="barcode" fill="#000000">
      <rect x="0" y="0" width="201" height="79" fill="#FFFFFF" />
      <rect x="10.00" y="10.00" width="1.00" height="50.00" />
      <rect x="13.00" y="10.00" width="1.00" height="50.00" />
      <rect x="15.00" y="10.00" width="2.00" height="50.00" />
      <rect x="18.00" y="10.00" width="2.00" height="50.00" />
      <rect x="21.00" y="10.00" width="1.00" height="50.00" />
      <rect x="23.00" y="10.00" width="2.00" height="50.00" />
      <rect x="26.00" y="10.00" width="2.00" height="50.00" />
      <rect x="29.00" y="10.00" width="1.00" height="50.00" />
      <rect x="32.00" y="10.00" width="1.00" height="50.00" />
      <rect x="34.00" y="10.00" width="1.00" height="50.00" />
      <rect x="36.00" y="10.00" width="1.00" height="50.00" />
      <rect x="39.00" y="10.00" width="1.00" height="50.00" />
      <rect x="41.00" y="10.00" width="1.00" height="50.00" />
      <rect x="44.00" y="10.00" width="1.00" height="50.00" />
      <rect x="47.00" y="10.00" width="1.00" height="50.00" />
      <rect x="49.00" y="10.00" width="2.00" height="50.00" />
      <rect x="52.00" y="10.00" width="1.00" height="50.00" />
      <rect x="54.00" y="10.00" width="2.00" height="50.00" />
      <rect x="57.00" y="10.00" width="1.00" height="50.00" />
      <rect x="60.00" y="10.00" width="1.00" height="50.00" />
      <rect x="62.00" y="10.00" width="1.00" height="50.00" />
      <rect x="65.00" y="10.00" width="1.00" height="50.00" />
      <rect x="67.00" y="10.00" width="1.00" height="50.00" />
      <rect x="70.00" y="10.00" width="1.00" height="50.00" />
      <rect x="73.00" y="10.00" width="1.00" height="50.00" />
      <rect x="75.00" y="10.00" width="1.00" height="50.00" />
      <rect x="77.00" y="10.00" width="1.00" height="50.00" />
      <rect x="79.00" y="10.00" width="2.00" height="50.00" />
      <rect x="83.00" y="10.00" width="1.00" height="50.00" />
      <rect x="85.00" y="10.00" width="2.00" height="50.00" />
      <rect x="88.00" y="10.00" width="1.00" height="50.00" />
      <rect x="91.00" y="10.00" width="1.00" height="50.00" />
      <rect x="93.00" y="10.00" width="1.00" height="50.00" />
      <rect x="96.00" y="10.00" width="1.00" height="50.00" />
      <rect x="99.00" y="10.00" width="1.00" height="50.00" />
      <rect x="101.00" y="10.00" width="2.00" height="50.00" />
      <rect x="104.00" y="10.00" width="1.00" height="50.00" />
      <rect x="106.00" y="10.00" width="2.00" height="50.00" />
      <rect x="110.00" y="10.00" width="1.00" height="50.00" />
      <rect x="112.00" y="10.00" width="1.00" height="50.00" />
      <rect x="114.00" y="10.00" width="1.00" height="50.00" />
      <rect x="117.00" y="10.00" width="2.00" height="50.00" />
      <rect x="120.00" y="10.00" width="1.00" height="50.00" />
      <rect x="122.00" y="10.00" width="2.00" height="50.00" />
      <rect x="125.00" y="10.00" width="1.00" height="50.00" />
      <rect x="127.00" y="10.00" width="2.00" height="50.00" />
      <rect x="130.00" y="10.00" width="2.00" height="50.00" />
      <rect x="134.00" y="10.00" width="1.00" height="50.00" />
      <rect x="136.00" y="10.00" width="1.00" height="50.00" />
      <rect x="138.00" y="10.00" width="1.00" height="50.00" />
      <rect x="140.00" y="10.00" width="1.00" height="50.00" />
      <rect x="142.00" y="10.00" width="2.00" height="50.00" />
      <rect x="146.00" y="10.00" width="1.00" height="50.00" />
      <rect x="148.00" y="10.00" width="2.00" height="50.00" />
      <rect x="151.00" y="10.00" width="1.00" height="50.00" />
      <rect x="153.00" y="10.00" width="1.00" height="50.00" />
      <rect x="156.00" y="10.00" width="1.00" height="50.00" />
      <rect x="158.00" y="10.00" width="1.00" height="50.00" />
      <rect x="161.00" y="10.00" width="1.00" height="50.00" />
      <rect x="164.00" y="10.00" width="1.00" height="50.00" />
      <rect x="166.00" y="10.00" width="2.00" height="50.00" />
      <rect x="169.00" y="10.00" width="1.00" height="50.00" />
      <rect x="171.00" y="10.00" width="2.00" height="50.00" />
      <rect x="175.00" y="10.00" width="1.00" height="50.00" />
      <rect x="177.00" y="10.00" width="1.00" height="50.00" />
      <rect x="179.00" y="10.00" width="1.00" height="50.00" />
      <rect x="182.00" y="10.00" width="1.00" height="50.00" />
      <rect x="184.00" y="10.00" width="2.00" height="50.00" />
      <rect x="187.00" y="10.00" width="2.00" height="50.00" />
      <rect x="190.00" y="10.00" width="1.00" height="50.00" />
      <text x="100.50" y="69.00" text-anchor="middle"
         font-family="Helvetica" font-size="8.0" fill="#000000" >
         Code 39e
      </text>
   </g>
</svg>
