<?xml version="1.0" standalone="no"?>
<!DOCTYPE svg PUBLIC "-//W3C//DTD SVG 1.1//EN"
   "http://www.w3.org/Graphics/SVG/1.1/DTD/svg11.dtd">
<svg width="253" height="79" version="1.1"
   xmlns="http://www.w3.org/2000/svg">
   <desc>(01)98898765432106(3202)012345(15)991231
   </desc>

   <g id="barcode" fill="#000000">
      <rect x="0" y="0" width="253" height="79" fill="#FFFFFF" />
      <rect x="10.00" y="10.00" width="2.00" height="50.00" />
      <rect x="13.00" y="10.00" width="1.00" height="50.00" />
      <rect x="16.00" y="10.00" width="3.00" height="50.00" />
      <rect x="21.00" y="10.00" width="4.00" height="50.00" />
      <rect x="26.00" y="10.00" width="1.00" height="50.00" />
      <rect x="28.00" y="10.00" width="3.00" height="50.00" />
      <rect x="32.00" y="10.00" width="2.00" height="50.00" />
      <rect x="36.00" y="10.00" width="2.00" height="50.00" />
      <rect x="39.00" y="10.00" width="2.00" height="50.00" />
      <rect x="43.00" y="10.00" width="4.00" height="50.00" />
      <rect x="48.00" y="10.00" width="1.00" height="50.00" />
      <rect x="52.00" y="10.00" width="1.00" height="50.00" />
      <rect x="54.00" y="10.00" width="2.00" height="50.00" />
      <rect x="57.00" y="10.00" width="2.00" height="50.00" />
      <rect x="60.00" y="10.00" width="4.00" height="50.00" />
      <rect x="65.00" y="10.00" width="4.00" height="50.00" />
      <rect x="71.00" y="10.00" width="1.00" height="50.00" />
      <rect x="73.00" y="10.00" width="1.00" height="50.00" />
      <rect x="76.00" y="10.00" width="1.00" height="50.00" />
      <rect x="79.00" y="10.00" width="1.00" height="50.00" />
      <rect x="81.00" y="10.00" width="2.00" height="50.00" />
      <rect x="87.00" y="10.00" width="1.00" height="50.00" />
      <rect x="89.00" y="10.00" width="2.00" height="50.00" />
      <rect x="94.00" y="10.00" width="3.00" height="50.00" />
      <rect x="98.00" y="10.00" width="2.00" height="50.00" />
      <rect x="101.00" y="10.00" width="3.00" height="50.00" />
      <rect x="106.00" y="10.00" width="1.00" height="50.00" />
      <rect x="109.00" y="10.00" width="1.00" height="50.00" />
      <rect x="112.00" y="10.00" width="2.00" height="50.00" />
      <rect x="116.00" y="10.00" width="1.00" height="50.00" />
      <rect x="120.00" y="10.00" width="2.00" height="50.00" />
      <rect x="125.00" y="10.00" width="2.00" height="50.00" />
      <rect x="128.00" y="10.00" width="2.00" height="50.00" />
      <rect x="131.00" y="10.00" width="2.00" height="50.00" />
      <rect x="135.00" y="10.00" width="2.00" height="50.00" />
      <rect x="139.00" y="10.00" width="2.00" height="50.00" />
      <rect x="142.00" y="10.00" width="2.00" height="50.00" />
      <rect x="146.00" y="10.00" width="2.00" height="50.00" />
      <rect x="149.00" y="10.00" width="2.00" height="50.00" />
      <rect x="153.00" y="10.00" width="3.00" height="50.00" />
      <rect x="157.00" y="10.00" width="2.00" height="50.00" />
      <rect x="160.00" y="10.00" width="3.00" height="50.00" />
      <rect x="164.00" y="10.00" width="1.00" height="50.00" />
      <rect x="166.00" y="10.00" width="3.00" height="50.00" />
      <rect x="170.00" y="10.00" width="2.00" height="50.00" />
      <rect x="175.00" y="10.00" width="1.00" height="50.00" />
      <rect x="177.00" y="10.00" width="3.00" height="50.00" />
      <rect x="182.00" y="10.00" width="2.00" height="50.00" />
      <rect x="186.00" y="10.00" width="1.00" height="50.00" />
      <rect x="188.00" y="10.00" width="3.00" height="50.00" />
      <rect x="192.00" y="10.00" width="4.00" height="50.00" />
      <rect x="197.00" y="10.00" width="1.00" height="50.00" />
      <rect x="199.00" y="10.00" width="2.00" height="50.00" />
      <rect x="203.00" y="10.00" width="3.00" height="50.00" />
      <rect x="208.00" y="10.00" width="2.00" height="50.00" />
      <rect x="211.00" y="10.00" width="2.00" height="50.00" />
      <rect x="216.00" y="10.00" width="2.00" height="50.00" />
      <rect x="219.00" y="10.00" width="4.00" height="50.00" />
      <rect x="225.00" y="10.00" width="1.00" height="50.00" />
      <rect x="227.00" y="10.00" width="1.00" height="50.00" />
      <rect x="230.00" y="10.00" width="2.00" height="50.00" />
      <rect x="235.00" y="10.00" width="3.00" height="50.00" />
      <rect x="239.00" y="10.00" width="1.00" height="50.00" />
      <rect x="241.00" y="10.00" width="2.00" height="50.00" />
      <text x="126.50" y="69.00" text-anchor="middle"
         font-family="Helvetica" font-size="8.0" fill="#000000" >
         (01)98898765432106(3202)012345(15)991231
      </text>
   </g>
</svg>
