<?xml version="1.0" standalone="no"?>
<!DOCTYPE svg PUBLIC "-//W3C//DTD SVG 1.1//EN"
   "http://www.w3.org/Graphics/SVG/1.1/DTD/svg11.dtd">
<svg width="102" height="79" version="1.1"
   xmlns="http://www.w3.org/2000/svg">
   <desc>D765432C
   </desc>

   <g id="barcode" fill="#000000">
      <rect x="0" y="0" width="102" height="79" fill="#FFFFFF" />
      <rect x="10.00" y="10.00" width="1.00" height="50.00" />
      <rect x="12.00" y="10.00" width="1.00" height="50.00" />
      <rect x="15.00" y="10.00" width="2.00" height="50.00" />
      <rect x="19.00" y="10.00" width="1.00" height="50.00" />
      <rect x="21.00" y="10.00" width="1.00" height="50.00" />
      <rect x="24.00" y="10.00" width="1.00" height="50.00" />
      <rect x="26.00" y="10.00" width="2.00" height="50.00" />
      <rect x="29.00" y="10.00" width="1.00" height="50.00" />
      <rect x="31.00" y="10.00" width="1.00" height="50.00" />
      <rect x="34.00" y="10.00" width="1.00" height="50.00" />
      <rect x="36.00" y="10.00" width="1.00" height="50.00" />
      <rect x="38.00" y="10.00" width="2.00" height="50.00" />
      <rect x="41.00" y="10.00" width="2.00" height="50.00" />
      <rect x="44.00" y="10.00" width="1.00" height="50.00" />
      <rect x="46.00" y="10.00" width="1.00" height="50.00" />
      <rect x="49.00" y="10.00" width="1.00" height="50.00" />
      <rect x="51.00" y="10.00" width="1.00" height="50.00" />
      <rect x="53.00" y="10.00" width="2.00" height="50.00" />
      <rect x="56.00" y="10.00" width="1.00" height="50.00" />
      <rect x="59.00" y="10.00" width="1.00" height="50.00" />
      <rect x="61.00" y="10.00" width="2.00" height="50.00" />
      <rect x="65.00" y="10.00" width="1.00" height="50.00" />
      <rect x="67.00" y="10.00" width="1.00" height="50.00" />
      <rect x="69.00" y="10.00" width="1.00" height="50.00" />
      <rect x="71.00" y="10.00" width="1.00" height="50.00" />
      <rect x="73.00" y="10.00" width="1.00" height="50.00" />
      <rect x="76.00" y="10.00" width="1.00" height="50.00" />
      <rect x="78.00" y="10.00" width="2.00" height="50.00" />
      <rect x="81.00" y="10.00" width="1.00" height="50.00" />
      <rect x="83.00" y="10.00" width="1.00" height="50.00" />
      <rect x="86.00" y="10.00" width="1.00" height="50.00" />
      <rect x="89.00" y="10.00" width="2.00" height="50.00" />
      <text x="51.00" y="69.00" text-anchor="middle"
         font-family="Helvetica" font-size="8.0" fill="#000000" >
         D765432C
      </text>
   </g>
</svg>
