<?xml version="1.0" standalone="no"?>
<!DOCTYPE svg PUBLIC "-//W3C//DTD SVG 1.1//EN"
   "http://www.w3.org/Graphics/SVG/1.1/DTD/svg11.dtd">
<svg width="164" height="79" version="1.1"
   xmlns="http://www.w3.org/2000/svg">
   <desc>2109876543210+21
   </desc>

   <g id="barcode" fill="#000000">
      <rect x="0" y="0" width="164" height="79" fill="#FFFFFF" />
      <rect x="20.00" y="10.00" width="1.00" height="50.00" />
      <rect x="22.00" y="10.00" width="1.00" height="50.00" />
      <rect x="25.00" y="10.00" width="2.00" height="50.00" />
      <rect x="29.00" y="10.00" width="1.00" height="50.00" />
      <rect x="33.00" y="10.00" width="2.00" height="50.00" />
      <rect x="36.00" y="10.00" width="1.00" height="50.00" />
      <rect x="39.00" y="10.00" width="1.00" height="50.00" />
      <rect x="41.00" y="10.00" width="3.00" height="50.00" />
      <rect x="47.00" y="10.00" width="1.00" height="50.00" />
      <rect x="50.00" y="10.00" width="1.00" height="50.00" />
      <rect x="52.00" y="10.00" width="3.00" height="50.00" />
      <rect x="56.00" y="10.00" width="2.00" height="50.00" />
      <rect x="62.00" y="10.00" width="1.00" height="50.00" />
      <rect x="64.00" y="10.00" width="1.00" height="50.00" />
      <rect x="66.00" y="10.00" width="1.00" height="50.00" />
      <rect x="68.00" y="10.00" width="1.00" height="50.00" />
      <rect x="70.00" y="10.00" width="1.00" height="50.00" />
      <rect x="73.00" y="10.00" width="3.00" height="50.00" />
      <rect x="77.00" y="10.00" width="1.00" height="50.00" />
      <rect x="79.00" y="10.00" width="3.00" height="50.00" />
      <rect x="84.00" y="10.00" width="1.00" height="50.00" />
      <rect x="89.00" y="10.00" width="1.00" height="50.00" />
      <rect x="91.00" y="10.00" width="2.00" height="50.00" />
      <rect x="94.00" y="10.00" width="2.00" height="50.00" />
      <rect x="98.00" y="10.00" width="2.00" height="50.00" />
      <rect x="102.00" y="10.00" width="2.00" height="50.00" />
      <rect x="105.00" y="10.00" width="3.00" height="50.00" />
      <rect x="110.00" y="10.00" width="1.00" height="50.00" />
      <rect x="112.00" y="10.00" width="1.00" height="50.00" />
      <rect x="114.00" y="10.00" width="1.00" height="50.00" />
      <rect x="124.00" y="20.00" width="1.00" height="45.00" />
      <rect x="126.00" y="20.00" width="2.00" height="45.00" />
      <rect x="130.00" y="20.00" width="1.00" height="45.00" />
      <rect x="133.00" y="20.00" width="2.00" height="45.00" />
      <rect x="136.00" y="20.00" width="1.00" height="45.00" />
      <rect x="138.00" y="20.00" width="2.00" height="45.00" />
      <rect x="142.00" y="20.00" width="2.00" height="45.00" />
      <rect x="20.00" y="60.00" width="1.00" height="5.00" />
      <rect x="22.00" y="60.00" width="1.00" height="5.00" />
      <rect x="66.00" y="60.00" width="1.00" height="5.00" />
      <rect x="68.00" y="60.00" width="1.00" height="5.00" />
      <rect x="112.00" y="60.00" width="1.00" height="5.00" />
      <rect x="114.00" y="60.00" width="1.00" height="5.00" />
      <text x="13.00" y="69.00" text-anchor="middle"
         font-family="Helvetica" font-size="11.0" fill="#000000" >
         2
      </text>
      <text x="44.00" y="69.00" text-anchor="middle"
         font-family="Helvetica" font-size="11.0" fill="#000000" >
         109876
      </text>
      <text x="91.00" y="69.00" text-anchor="middle"
         font-family="Helvetica" font-size="11.0" fill="#000000" >
         543210
      </text>
      <text x="134.00" y="18.00" text-anchor="middle"
         font-family="Helvetica" font-size="11.0" fill="#000000" >
         21
      </text>
   </g>
</svg>
