<?xml version="1.0" standalone="no"?>
<!DOCTYPE svg PUBLIC "-//W3C//DTD SVG 1.1//EN"
   "http://www.w3.org/Graphics/SVG/1.1/DTD/svg11.dtd">
<svg width="87" height="79" version="1.1"
   xmlns="http://www.w3.org/2000/svg">
   <desc>76543210
   </desc>

   <g id="barcode" fill="#000000">
      <rect x="0" y="0" width="87" height="79" fill="#FFFFFF" />
      <rect x="10.00" y="10.00" width="1.00" height="50.00" />
      <rect x="12.00" y="10.00" width="1.00" height="50.00" />
      <rect x="14.00" y="10.00" width="3.00" height="50.00" />
      <rect x="18.00" y="10.00" width="2.00" height="50.00" />
      <rect x="21.00" y="10.00" width="1.00" height="50.00" />
      <rect x="23.00" y="10.00" width="4.00" height="50.00" />
      <rect x="28.00" y="10.00" width="2.00" height="50.00" />
      <rect x="33.00" y="10.00" width="1.00" height="50.00" />
      <rect x="35.00" y="10.00" width="1.00" height="50.00" />
      <rect x="39.00" y="10.00" width="2.00" height="50.00" />
      <rect x="42.00" y="10.00" width="1.00" height="50.00" />
      <rect x="44.00" y="10.00" width="1.00" height="50.00" />
      <rect x="46.00" y="10.00" width="1.00" height="50.00" />
      <rect x="51.00" y="10.00" width="1.00" height="50.00" />
      <rect x="53.00" y="10.00" width="2.00" height="50.00" />
      <rect x="56.00" y="10.00" width="2.00" height="50.00" />
      <rect x="60.00" y="10.00" width="2.00" height="50.00" />
      <rect x="64.00" y="10.00" width="2.00" height="50.00" />
      <rect x="67.00" y="10.00" width="3.00" height="50.00" />
      <rect x="72.00" y="10.00" width="1.00" height="50.00" />
      <rect x="74.00" y="10.00" width="1.00" height="50.00" />
      <rect x="76.00" y="10.00" width="1.00" height="50.00" />
      <rect x="10.00" y="60.00" width="1.00" height="5.00" />
      <rect x="12.00" y="60.00" width="1.00" height="5.00" />
      <rect x="42.00" y="60.00" width="1.00" height="5.00" />
      <rect x="44.00" y="60.00" width="1.00" height="5.00" />
      <rect x="74.00" y="60.00" width="1.00" height="5.00" />
      <rect x="76.00" y="60.00" width="1.00" height="5.00" />
      <text x="27.00" y="69.00" text-anchor="middle"
         font-family="Helvetica" font-size="11.0" fill="#000000" >
         7654
      </text>
      <text x="60.00" y="69.00" text-anchor="middle"
         font-family="Helvetica" font-size="11.0" fill="#000000" >
         3210
      </text>
   </g>
</svg>
