<?xml version="1.0" standalone="no"?>
<!DOCTYPE svg PUBLIC "-//W3C//DTD SVG 1.1//EN"
   "http://www.w3.org/Graphics/SVG/1.1/DTD/svg11.dtd">
<svg width="147" height="79" version="1.1"
   xmlns="http://www.w3.org/2000/svg">
   <desc>Code 93a8
   </desc>

   <g id="barcode" fill="#000000">
      <rect x="0" y="0" width="147" height="79" fill="#FFFFFF" />
      <rect x="10.00" y="10.00" width="1.00" height="50.00" />
      <rect x="12.00" y="10.00" width="1.00" height="50.00" />
      <rect x="14.00" y="10.00" width="4.00" height="50.00" />
      <rect x="19.00" y="10.00" width="2.00" height="50.00" />
      <rect x="22.00" y="10.00" width="1.00" height="50.00" />
      <rect x="26.00" y="10.00" width="1.00" height="50.00" />
      <rect x="28.00" y="10.00" width="1.00" height="50.00" />
      <rect x="31.00" y="10.00" width="2.00" height="50.00" />
      <rect x="35.00" y="10.00" width="1.00" height="50.00" />
      <rect x="37.00" y="10.00" width="1.00" height="50.00" />
      <rect x="40.00" y="10.00" width="1.00" height="50.00" />
      <rect x="42.00" y="10.00" width="2.00" height="50.00" />
      <rect x="46.00" y="10.00" width="1.00" height="50.00" />
      <rect x="49.00" y="10.00" width="2.00" height="50.00" />
      <rect x="53.00" y="10.00" width="1.00" height="50.00" />
      <rect x="55.00" y="10.00" width="2.00" height="50.00" />
      <rect x="59.00" y="10.00" width="1.00" height="50.00" />
      <rect x="61.00" y="10.00" width="1.00" height="50.00" />
      <rect x="64.00" y="10.00" width="1.00" height="50.00" />
      <rect x="67.00" y="10.00" width="2.00" height="50.00" />
      <rect x="71.00" y="10.00" width="1.00" height="50.00" />
      <rect x="73.00" y="10.00" width="2.00" height="50.00" />
      <rect x="77.00" y="10.00" width="1.00" height="50.00" />
      <rect x="80.00" y="10.00" width="1.00" height="50.00" />
      <rect x="82.00" y="10.00" width="3.00" height="50.00" />
      <rect x="86.00" y="10.00" width="1.00" height="50.00" />
      <rect x="89.00" y="10.00" width="1.00" height="50.00" />
      <rect x="91.00" y="10.00" width="1.00" height="50.00" />
      <rect x="96.00" y="10.00" width="1.00" height="50.00" />
      <rect x="98.00" y="10.00" width="1.00" height="50.00" />
      <rect x="100.00" y="10.00" width="1.00" height="50.00" />
      <rect x="102.00" y="10.00" width="1.00" height="50.00" />
      <rect x="107.00" y="10.00" width="1.00" height="50.00" />
      <rect x="109.00" y="10.00" width="1.00" height="50.00" />
      <rect x="112.00" y="10.00" width="1.00" height="50.00" />
      <rect x="115.00" y="10.00" width="2.00" height="50.00" />
      <rect x="118.00" y="10.00" width="1.00" height="50.00" />
      <rect x="122.00" y="10.00" width="1.00" height="50.00" />
      <rect x="125.00" y="10.00" width="1.00" height="50.00" />
      <rect x="127.00" y="10.00" width="1.00" height="50.00" />
      <rect x="129.00" y="10.00" width="1.00" height="50.00" />
      <rect x="131.00" y="10.00" width="4.00" height="50.00" />
      <rect x="136.00" y="10.00" width="1.00" height="50.00" />
      <text x="73.50" y="69.00" text-anchor="middle"
         font-family="Helvetica" font-size="8.0" fill="#000000" >
         Code 93a8
      </text>
   </g>
</svg>
