<?xml version="1.0" standalone="no"?>
<!DOCTYPE svg PUBLIC "-//W3C//DTD SVG 1.1//EN"
   "http://www.w3.org/Graphics/SVG/1.1/DTD/svg11.dtd">
<svg width="106" height="94" version="1.1"
   xmlns="http://www.w3.org/2000/svg">
   <desc>Zint Generated Symbol
   </desc>

   <g id="barcode" fill="#000000">
      <rect x="0" y="0" width="106" height="94" fill="#FFFFFF" />
      <rect x="18.00" y="2.00" width="3.00" height="10.00" />
      <rect x="23.00" y="2.00" width="1.00" height="10.00" />
      <rect x="25.00" y="2.00" width="1.00" height="10.00" />
      <rect x="28.00" y="2.00" width="1.00" height="10.00" />
      <rect x="32.00" y="2.00" width="1.00" height="10.00" />
      <rect x="36.00" y="2.00" width="1.00" height="10.00" />
      <rect x="39.00" y="2.00" width="2.00" height="10.00" />
      <rect x="43.00" y="2.00" width="1.00" height="10.00" />
      <rect x="46.00" y="2.00" width="2.00" height="10.00" />
      <rect x="52.00" y="2.00" width="1.00" height="10.00" />
      <rect x="54.00" y="2.00" width="3.00" height="10.00" />
      <rect x="58.00" y="2.00" width="1.00" height="10.00" />
      <rect x="61.00" y="2.00" width="1.00" height="10.00" />
      <rect x="64.00" y="2.00" width="1.00" height="10.00" />
      <rect x="69.00" y="2.00" width="1.00" height="10.00" />
      <rect x="74.00" y="2.00" width="2.00" height="10.00" />
      <rect x="77.00" y="2.00" width="1.00" height="10.00" />
      <rect x="79.00" y="2.00" width="2.00" height="10.00" />
      <rect x="84.00" y="2.00" width="2.00" height="10.00" />
      <rect x="87.00" y="2.00" width="1.00" height="10.00" />
      <rect x="18.00" y="12.00" width="2.00" height="10.00" />
      <rect x="22.00" y="12.00" width="2.00" height="10.00" />
      <rect x="25.00" y="12.00" width="1.00" height="10.00" />
      <rect x="27.00" y="12.00" width="2.00" height="10.00" />
      <rect x="30.00" y="12.00" width="1.00" height="10.00" />
      <rect x="33.00" y="12.00" width="4.00" height="10.00" />
      <rect x="38.00" y="12.00" width="1.00" height="10.00" />
      <rect x="41.00" y="12.00" width="3.00" height="10.00" />
      <rect x="47.00" y="12.00" width="1.00" height="10.00" />
      <rect x="50.00" y="12.00" width="1.00" height="10.00" />
      <rect x="54.00" y="12.00" width="2.00" height="10.00" />
      <rect x="57.00" y="12.00" width="2.00" height="10.00" />
      <rect x="60.00" y="12.00" width="2.00" height="10.00" />
      <rect x="64.00" y="12.00" width="2.00" height="10.00" />
      <rect x="67.00" y="12.00" width="3.00" height="10.00" />
      <rect x="72.00" y="12.00" width="2.00" height="10.00" />
      <rect x="76.00" y="12.00" width="2.00" height="10.00" />
      <rect x="80.00" y="12.00" width="1.00" height="10.00" />
      <rect x="83.00" y="12.00" width="2.00" height="10.00" />
      <rect x="87.00" y="12.00" width="1.00" height="10.00" />
      <rect x="18.00" y="22.00" width="2.00" height="10.00" />
      <rect x="21.00" y="22.00" width="2.00" height="10.00" />
      <rect x="25.00" y="22.00" width="1.00" height="10.00" />
      <rect x="27.00" y="22.00" width="2.00" height="10.00" />
      <rect x="31.00" y="22.00" width="1.00" height="10.00" />
      <rect x="35.00" y="22.00" width="2.00" height="10.00" />
      <rect x="39.00" y="22.00" width="2.00" height="10.00" />
      <rect x="43.00" y="22.00" width="1.00" height="10.00" />
      <rect x="46.00" y="22.00" width="2.00" height="10.00" />
      <rect x="51.00" y="22.00" width="1.00" height="10.00" />
      <rect x="54.00" y="22.00" width="1.00" height="10.00" />
      <rect x="58.00" y="22.00" width="1.00" height="10.00" />
      <rect x="60.00" y="22.00" width="1.00" height="10.00" />
      <rect x="64.00" y="22.00" width="1.00" height="10.00" />
      <rect x="67.00" y="22.00" width="3.00" height="10.00" />
      <rect x="71.00" y="22.00" width="4.00" height="10.00" />
      <rect x="76.00" y="22.00" width="1.00" height="10.00" />
      <rect x="79.00" y="22.00" width="2.00" height="10.00" />
      <rect x="83.00" y="22.00" width="1.00" height="10.00" />
      <rect x="86.00" y="22.00" width="2.00" height="10.00" />
      <rect x="18.00" y="32.00" width="1.00" height="10.00" />
      <rect x="23.00" y="32.00" width="1.00" height="10.00" />
      <rect x="25.00" y="32.00" width="1.00" height="10.00" />
      <rect x="28.00" y="32.00" width="1.00" height="10.00" />
      <rect x="31.00" y="32.00" width="1.00" height="10.00" />
      <rect x="36.00" y="32.00" width="1.00" height="10.00" />
      <rect x="39.00" y="32.00" width="2.00" height="10.00" />
      <rect x="42.00" y="32.00" width="2.00" height="10.00" />
      <rect x="45.00" y="32.00" width="3.00" height="10.00" />
      <rect x="50.00" y="32.00" width="2.00" height="10.00" />
      <rect x="53.00" y="32.00" width="3.00" height="10.00" />
      <rect x="57.00" y="32.00" width="2.00" height="10.00" />
      <rect x="60.00" y="32.00" width="1.00" height="10.00" />
      <rect x="63.00" y="32.00" width="2.00" height="10.00" />
      <rect x="68.00" y="32.00" width="2.00" height="10.00" />
      <rect x="71.00" y="32.00" width="3.00" height="10.00" />
      <rect x="75.00" y="32.00" width="1.00" height="10.00" />
      <rect x="78.00" y="32.00" width="3.00" height="10.00" />
      <rect x="82.00" y="32.00" width="4.00" height="10.00" />
      <rect x="87.00" y="32.00" width="1.00" height="10.00" />
      <rect x="18.00" y="42.00" width="1.00" height="10.00" />
      <rect x="20.00" y="42.00" width="3.00" height="10.00" />
      <rect x="25.00" y="42.00" width="1.00" height="10.00" />
      <rect x="29.00" y="42.00" width="3.00" height="10.00" />
      <rect x="33.00" y="42.00" width="1.00" height="10.00" />
      <rect x="36.00" y="42.00" width="1.00" height="10.00" />
      <rect x="38.00" y="42.00" width="1.00" height="10.00" />
      <rect x="43.00" y="42.00" width="1.00" height="10.00" />
      <rect x="47.00" y="42.00" width="1.00" height="10.00" />
      <rect x="51.00" y="42.00" width="1.00" height="10.00" />
      <rect x="54.00" y="42.00" width="1.00" height="10.00" />
      <rect x="58.00" y="42.00" width="1.00" height="10.00" />
      <rect x="60.00" y="42.00" width="1.00" height="10.00" />
      <rect x="62.00" y="42.00" width="3.00" height="10.00" />
      <rect x="67.00" y="42.00" width="3.00" height="10.00" />
      <rect x="71.00" y="42.00" width="3.00" height="10.00" />
      <rect x="75.00" y="42.00" width="1.00" height="10.00" />
      <rect x="78.00" y="42.00" width="3.00" height="10.00" />
      <rect x="82.00" y="42.00" width="1.00" height="10.00" />
      <rect x="86.00" y="42.00" width="2.00" height="10.00" />
      <rect x="18.00" y="52.00" width="1.00" height="10.00" />
      <rect x="21.00" y="52.00" width="3.00" height="10.00" />
      <rect x="25.00" y="52.00" width="1.00" height="10.00" />
      <rect x="27.00" y="52.00" width="3.00" height="10.00" />
      <rect x="31.00" y="52.00" width="3.00" height="10.00" />
      <rect x="36.00" y="52.00" width="1.00" height="10.00" />
      <rect x="38.00" y="52.00" width="1.00" height="10.00" />
      <rect x="41.00" y="52.00" width="3.00" height="10.00" />
      <rect x="45.00" y="52.00" width="3.00" height="10.00" />
      <rect x="49.00" y="52.00" width="3.00" height="10.00" />
      <rect x="54.00" y="52.00" width="1.00" height="10.00" />
      <rect x="56.00" y="52.00" width="3.00" height="10.00" />
      <rect x="60.00" y="52.00" width="3.00" height="10.00" />
      <rect x="65.00" y="52.00" width="3.00" height="10.00" />
      <rect x="69.00" y="52.00" width="1.00" height="10.00" />
      <rect x="72.00" y="52.00" width="1.00" height="10.00" />
      <rect x="74.00" y="52.00" width="3.00" height="10.00" />
      <rect x="78.00" y="52.00" width="3.00" height="10.00" />
      <rect x="82.00" y="52.00" width="2.00" height="10.00" />
      <rect x="87.00" y="52.00" width="1.00" height="10.00" />
      <rect x="18.00" y="62.00" width="1.00" height="10.00" />
      <rect x="20.00" y="62.00" width="1.00" height="10.00" />
      <rect x="25.00" y="62.00" width="1.00" height="10.00" />
      <rect x="27.00" y="62.00" width="1.00" height="10.00" />
      <rect x="31.00" y="62.00" width="1.00" height="10.00" />
      <rect x="36.00" y="62.00" width="1.00" height="10.00" />
      <rect x="41.00" y="62.00" width="1.00" height="10.00" />
      <rect x="43.00" y="62.00" width="1.00" height="10.00" />
      <rect x="47.00" y="62.00" width="1.00" height="10.00" />
      <rect x="50.00" y="62.00" width="3.00" height="10.00" />
      <rect x="55.00" y="62.00" width="1.00" height="10.00" />
      <rect x="58.00" y="62.00" width="1.00" height="10.00" />
      <rect x="61.00" y="62.00" width="2.00" height="10.00" />
      <rect x="65.00" y="62.00" width="2.00" height="10.00" />
      <rect x="69.00" y="62.00" width="1.00" height="10.00" />
      <rect x="72.00" y="62.00" width="2.00" height="10.00" />
      <rect x="76.00" y="62.00" width="1.00" height="10.00" />
      <rect x="79.00" y="62.00" width="2.00" height="10.00" />
      <rect x="82.00" y="62.00" width="1.00" height="10.00" />
      <rect x="84.00" y="62.00" width="4.00" height="10.00" />
      <rect x="18.00" y="72.00" width="3.00" height="10.00" />
      <rect x="22.00" y="72.00" width="1.00" height="10.00" />
      <rect x="25.00" y="72.00" width="1.00" height="10.00" />
      <rect x="29.00" y="72.00" width="1.00" height="10.00" />
      <rect x="32.00" y="72.00" width="1.00" height="10.00" />
      <rect x="36.00" y="72.00" width="1.00" height="10.00" />
      <rect x="38.00" y="72.00" width="1.00" height="10.00" />
      <rect x="42.00" y="72.00" width="1.00" height="10.00" />
      <rect x="45.00" y="72.00" width="3.00" height="10.00" />
      <rect x="49.00" y="72.00" width="1.00" height="10.00" />
      <rect x="53.00" y="72.00" width="2.00" height="10.00" />
      <rect x="57.00" y="72.00" width="2.00" height="10.00" />
      <rect x="60.00" y="72.00" width="1.00" height="10.00" />
      <rect x="64.00" y="72.00" width="1.00" height="10.00" />
      <rect x="69.00" y="72.00" width="1.00" height="10.00" />
      <rect x="71.00" y="72.00" width="1.00" height="10.00" />
      <rect x="74.00" y="72.00" width="2.00" height="10.00" />
      <rect x="79.00" y="72.00" width="2.00" height="10.00" />
      <rect x="84.00" y="72.00" width="1.00" height="10.00" />
      <rect x="86.00" y="72.00" width="2.00" height="10.00" />
      <rect x="18.00" y="82.00" width="3.00" height="10.00" />
      <rect x="23.00" y="82.00" width="1.00" height="10.00" />
      <rect x="25.00" y="82.00" width="1.00" height="10.00" />
      <rect x="28.00" y="82.00" width="1.00" height="10.00" />
      <rect x="31.00" y="82.00" width="3.00" height="10.00" />
      <rect x="36.00" y="82.00" width="1.00" height="10.00" />
      <rect x="39.00" y="82.00" width="1.00" height="10.00" />
      <rect x="41.00" y="82.00" width="1.00" height="10.00" />
      <rect x="45.00" y="82.00" width="3.00" height="10.00" />
      <rect x="50.00" y="82.00" width="1.00" height="10.00" />
      <rect x="52.00" y="82.00" width="1.00" height="10.00" />
      <rect x="56.00" y="82.00" width="3.00" height="10.00" />
      <rect x="62.00" y="82.00" width="1.00" height="10.00" />
      <rect x="64.00" y="82.00" width="1.00" height="10.00" />
      <rect x="69.00" y="82.00" width="1.00" height="10.00" />
      <rect x="72.00" y="82.00" width="1.00" height="10.00" />
      <rect x="74.00" y="82.00" width="2.00" height="10.00" />
      <rect x="79.00" y="82.00" width="2.00" height="10.00" />
      <rect x="82.00" y="82.00" width="1.00" height="10.00" />
      <rect x="86.00" y="82.00" width="2.00" height="10.00" />
      <rect x="18.00" y="11.00" width="70.00" height="2.00" />
      <rect x="18.00" y="21.00" width="70.00" height="2.00" />
      <rect x="18.00" y="31.00" width="70.00" height="2.00" />
      <rect x="18.00" y="41.00" width="70.00" height="2.00" />
      <rect x="18.00" y="51.00" width="70.00" height="2.00" />
      <rect x="18.00" y="61.00" width="70.00" height="2.00" />
      <rect x="18.00" y="71.00" width="70.00" height="2.00" />
      <rect x="18.00" y="81.00" width="70.00" height="2.00" />
      <rect x="0.00" y="0.00" width="106.00" height="2.00" />
      <rect x="0.00" y="92.00" width="106.00" height="2.00" />
   </g>
</svg>
