<?xml version="1.0" standalone="no"?>
<!DOCTYPE svg PUBLIC "-//W3C//DTD SVG 1.1//EN"
   "http://www.w3.org/Graphics/SVG/1.1/DTD/svg11.dtd">
<svg width="155" height="79" version="1.1"
   xmlns="http://www.w3.org/2000/svg">
   <desc>32109876543216
   </desc>

   <g id="barcode" fill="#000000">
      <rect x="0" y="0" width="155" height="79" fill="#FFFFFF" />
      <rect x="10.00" y="10.00" width="1.00" height="50.00" />
      <rect x="12.00" y="10.00" width="1.00" height="50.00" />
      <rect x="14.00" y="10.00" width="3.00" height="50.00" />
      <rect x="18.00" y="10.00" width="3.00" height="50.00" />
      <rect x="24.00" y="10.00" width="1.00" height="50.00" />
      <rect x="26.00" y="10.00" width="1.00" height="50.00" />
      <rect x="28.00" y="10.00" width="1.00" height="50.00" />
      <rect x="32.00" y="10.00" width="3.00" height="50.00" />
      <rect x="36.00" y="10.00" width="1.00" height="50.00" />
      <rect x="38.00" y="10.00" width="1.00" height="50.00" />
      <rect x="42.00" y="10.00" width="1.00" height="50.00" />
      <rect x="46.00" y="10.00" width="3.00" height="50.00" />
      <rect x="50.00" y="10.00" width="1.00" height="50.00" />
      <rect x="54.00" y="10.00" width="3.00" height="50.00" />
      <rect x="58.00" y="10.00" width="1.00" height="50.00" />
      <rect x="60.00" y="10.00" width="3.00" height="50.00" />
      <rect x="66.00" y="10.00" width="1.00" height="50.00" />
      <rect x="68.00" y="10.00" width="1.00" height="50.00" />
      <rect x="70.00" y="10.00" width="1.00" height="50.00" />
      <rect x="74.00" y="10.00" width="1.00" height="50.00" />
      <rect x="78.00" y="10.00" width="3.00" height="50.00" />
      <rect x="82.00" y="10.00" width="3.00" height="50.00" />
      <rect x="86.00" y="10.00" width="3.00" height="50.00" />
      <rect x="90.00" y="10.00" width="1.00" height="50.00" />
      <rect x="92.00" y="10.00" width="3.00" height="50.00" />
      <rect x="98.00" y="10.00" width="1.00" height="50.00" />
      <rect x="100.00" y="10.00" width="1.00" height="50.00" />
      <rect x="104.00" y="10.00" width="3.00" height="50.00" />
      <rect x="108.00" y="10.00" width="3.00" height="50.00" />
      <rect x="114.00" y="10.00" width="1.00" height="50.00" />
      <rect x="116.00" y="10.00" width="1.00" height="50.00" />
      <rect x="118.00" y="10.00" width="1.00" height="50.00" />
      <rect x="122.00" y="10.00" width="3.00" height="50.00" />
      <rect x="126.00" y="10.00" width="1.00" height="50.00" />
      <rect x="130.00" y="10.00" width="1.00" height="50.00" />
      <rect x="134.00" y="10.00" width="1.00" height="50.00" />
      <rect x="136.00" y="10.00" width="3.00" height="50.00" />
      <rect x="140.00" y="10.00" width="3.00" height="50.00" />
      <rect x="144.00" y="10.00" width="1.00" height="50.00" />
      <text x="77.50" y="69.00" text-anchor="middle"
         font-family="Helvetica" font-size="8.0" fill="#000000" >
         32109876543216
      </text>
   </g>
</svg>
