<?xml version="1.0" standalone="no"?>
<!DOCTYPE svg PUBLIC "-//W3C//DTD SVG 1.1//EN"
   "http://www.w3.org/Graphics/SVG/1.1/DTD/svg11.dtd">
<svg width="94" height="64" version="1.1"
   xmlns="http://www.w3.org/2000/svg">
   <desc>Zint Generated Symbol
   </desc>

   <g id="barcode" fill="#000000">
      <rect x="0" y="0" width="94" height="64" fill="#FFFFFF" />
      <rect x="12.00" y="2.00" width="1.00" height="10.00" />
      <rect x="14.00" y="2.00" width="1.00" height="10.00" />
      <rect x="16.00" y="2.00" width="4.00" height="10.00" />
      <rect x="23.00" y="2.00" width="1.00" height="10.00" />
      <rect x="26.00" y="2.00" width="1.00" height="10.00" />
      <rect x="30.00" y="2.00" width="3.00" height="10.00" />
      <rect x="34.00" y="2.00" width="1.00" height="10.00" />
      <rect x="36.00" y="2.00" width="4.00" height="10.00" />
      <rect x="43.00" y="2.00" width="2.00" height="10.00" />
      <rect x="46.00" y="2.00" width="1.00" height="10.00" />
      <rect x="49.00" y="2.00" width="1.00" height="10.00" />
      <rect x="51.00" y="2.00" width="1.00" height="10.00" />
      <rect x="56.00" y="2.00" width="3.00" height="10.00" />
      <rect x="62.00" y="2.00" width="3.00" height="10.00" />
      <rect x="69.00" y="2.00" width="1.00" height="10.00" />
      <rect x="71.00" y="2.00" width="2.00" height="10.00" />
      <rect x="76.00" y="2.00" width="1.00" height="10.00" />
      <rect x="78.00" y="2.00" width="4.00" height="10.00" />
      <rect x="12.00" y="12.00" width="1.00" height="10.00" />
      <rect x="14.00" y="12.00" width="1.00" height="10.00" />
      <rect x="16.00" y="12.00" width="2.00" height="10.00" />
      <rect x="20.00" y="12.00" width="5.00" height="10.00" />
      <rect x="26.00" y="12.00" width="2.00" height="10.00" />
      <rect x="30.00" y="12.00" width="3.00" height="10.00" />
      <rect x="34.00" y="12.00" width="1.00" height="10.00" />
      <rect x="37.00" y="12.00" width="2.00" height="10.00" />
      <rect x="40.00" y="12.00" width="5.00" height="10.00" />
      <rect x="46.00" y="12.00" width="1.00" height="10.00" />
      <rect x="50.00" y="12.00" width="1.00" height="10.00" />
      <rect x="56.00" y="12.00" width="2.00" height="10.00" />
      <rect x="59.00" y="12.00" width="2.00" height="10.00" />
      <rect x="62.00" y="12.00" width="1.00" height="10.00" />
      <rect x="65.00" y="12.00" width="3.00" height="10.00" />
      <rect x="70.00" y="12.00" width="1.00" height="10.00" />
      <rect x="73.00" y="12.00" width="4.00" height="10.00" />
      <rect x="78.00" y="12.00" width="4.00" height="10.00" />
      <rect x="12.00" y="22.00" width="1.00" height="10.00" />
      <rect x="14.00" y="22.00" width="2.00" height="10.00" />
      <rect x="17.00" y="22.00" width="1.00" height="10.00" />
      <rect x="22.00" y="22.00" width="1.00" height="10.00" />
      <rect x="24.00" y="22.00" width="3.00" height="10.00" />
      <rect x="30.00" y="22.00" width="2.00" height="10.00" />
      <rect x="36.00" y="22.00" width="1.00" height="10.00" />
      <rect x="38.00" y="22.00" width="2.00" height="10.00" />
      <rect x="41.00" y="22.00" width="2.00" height="10.00" />
      <rect x="46.00" y="22.00" width="2.00" height="10.00" />
      <rect x="53.00" y="22.00" width="1.00" height="10.00" />
      <rect x="55.00" y="22.00" width="4.00" height="10.00" />
      <rect x="60.00" y="22.00" width="1.00" height="10.00" />
      <rect x="62.00" y="22.00" width="1.00" height="10.00" />
      <rect x="68.00" y="22.00" width="1.00" height="10.00" />
      <rect x="70.00" y="22.00" width="1.00" height="10.00" />
      <rect x="76.00" y="22.00" width="1.00" height="10.00" />
      <rect x="78.00" y="22.00" width="4.00" height="10.00" />
      <rect x="12.00" y="32.00" width="1.00" height="10.00" />
      <rect x="14.00" y="32.00" width="2.00" height="10.00" />
      <rect x="18.00" y="32.00" width="1.00" height="10.00" />
      <rect x="22.00" y="32.00" width="4.00" height="10.00" />
      <rect x="28.00" y="32.00" width="1.00" height="10.00" />
      <rect x="30.00" y="32.00" width="1.00" height="10.00" />
      <rect x="32.00" y="32.00" width="2.00" height="10.00" />
      <rect x="36.00" y="32.00" width="5.00" height="10.00" />
      <rect x="42.00" y="32.00" width="2.00" height="10.00" />
      <rect x="46.00" y="32.00" width="2.00" height="10.00" />
      <rect x="49.00" y="32.00" width="3.00" height="10.00" />
      <rect x="53.00" y="32.00" width="3.00" height="10.00" />
      <rect x="60.00" y="32.00" width="1.00" height="10.00" />
      <rect x="62.00" y="32.00" width="2.00" height="10.00" />
      <rect x="65.00" y="32.00" width="1.00" height="10.00" />
      <rect x="69.00" y="32.00" width="1.00" height="10.00" />
      <rect x="73.00" y="32.00" width="3.00" height="10.00" />
      <rect x="78.00" y="32.00" width="4.00" height="10.00" />
      <rect x="12.00" y="42.00" width="1.00" height="10.00" />
      <rect x="14.00" y="42.00" width="1.00" height="10.00" />
      <rect x="19.00" y="42.00" width="3.00" height="10.00" />
      <rect x="23.00" y="42.00" width="2.00" height="10.00" />
      <rect x="26.00" y="42.00" width="3.00" height="10.00" />
      <rect x="30.00" y="42.00" width="1.00" height="10.00" />
      <rect x="33.00" y="42.00" width="2.00" height="10.00" />
      <rect x="37.00" y="42.00" width="2.00" height="10.00" />
      <rect x="43.00" y="42.00" width="1.00" height="10.00" />
      <rect x="46.00" y="42.00" width="1.00" height="10.00" />
      <rect x="52.00" y="42.00" width="2.00" height="10.00" />
      <rect x="56.00" y="42.00" width="2.00" height="10.00" />
      <rect x="59.00" y="42.00" width="2.00" height="10.00" />
      <rect x="62.00" y="42.00" width="1.00" height="10.00" />
      <rect x="66.00" y="42.00" width="1.00" height="10.00" />
      <rect x="71.00" y="42.00" width="1.00" height="10.00" />
      <rect x="73.00" y="42.00" width="3.00" height="10.00" />
      <rect x="78.00" y="42.00" width="4.00" height="10.00" />
      <rect x="12.00" y="52.00" width="1.00" height="10.00" />
      <rect x="14.00" y="52.00" width="4.00" height="10.00" />
      <rect x="19.00" y="52.00" width="1.00" height="10.00" />
      <rect x="22.00" y="52.00" width="1.00" height="10.00" />
      <rect x="26.00" y="52.00" width="2.00" height="10.00" />
      <rect x="30.00" y="52.00" width="3.00" height="10.00" />
      <rect x="34.00" y="52.00" width="3.00" height="10.00" />
      <rect x="40.00" y="52.00" width="1.00" height="10.00" />
      <rect x="42.00" y="52.00" width="3.00" height="10.00" />
      <rect x="46.00" y="52.00" width="1.00" height="10.00" />
      <rect x="51.00" y="52.00" width="1.00" height="10.00" />
      <rect x="55.00" y="52.00" width="3.00" height="10.00" />
      <rect x="59.00" y="52.00" width="1.00" height="10.00" />
      <rect x="62.00" y="52.00" width="4.00" height="10.00" />
      <rect x="68.00" y="52.00" width="2.00" height="10.00" />
      <rect x="74.00" y="52.00" width="1.00" height="10.00" />
      <rect x="76.00" y="52.00" width="1.00" height="10.00" />
      <rect x="78.00" y="52.00" width="4.00" height="10.00" />
      <rect x="12.00" y="11.00" width="70.00" height="2.00" />
      <rect x="12.00" y="21.00" width="70.00" height="2.00" />
      <rect x="12.00" y="31.00" width="70.00" height="2.00" />
      <rect x="12.00" y="41.00" width="70.00" height="2.00" />
      <rect x="12.00" y="51.00" width="70.00" height="2.00" />
      <rect x="0.00" y="0.00" width="94.00" height="2.00" />
      <rect x="0.00" y="62.00" width="94.00" height="2.00" />
   </g>
</svg>
