<?xml version="1.0" standalone="no"?>
<!DOCTYPE svg PUBLIC "-//W3C//DTD SVG 1.1//EN"
   "http://www.w3.org/Graphics/SVG/1.1/DTD/svg11.dtd">
<svg width="171" height="79" version="1.1"
   xmlns="http://www.w3.org/2000/svg">
   <desc>(01)90012345678908(3103)001750
   </desc>

   <g id="barcode" fill="#000000">
      <rect x="0" y="0" width="171" height="79" fill="#FFFFFF" />
      <rect x="11.00" y="10.00" width="1.00" height="50.00" />
      <rect x="13.00" y="10.00" width="3.00" height="50.00" />
      <rect x="18.00" y="10.00" width="1.00" height="50.00" />
      <rect x="24.00" y="10.00" width="1.00" height="50.00" />
      <rect x="27.00" y="10.00" width="2.00" height="50.00" />
      <rect x="30.00" y="10.00" width="8.00" height="50.00" />
      <rect x="42.00" y="10.00" width="1.00" height="50.00" />
      <rect x="44.00" y="10.00" width="3.00" height="50.00" />
      <rect x="51.00" y="10.00" width="1.00" height="50.00" />
      <rect x="54.00" y="10.00" width="2.00" height="50.00" />
      <rect x="59.00" y="10.00" width="1.00" height="50.00" />
      <rect x="61.00" y="10.00" width="1.00" height="50.00" />
      <rect x="63.00" y="10.00" width="4.00" height="50.00" />
      <rect x="68.00" y="10.00" width="3.00" height="50.00" />
      <rect x="73.00" y="10.00" width="2.00" height="50.00" />
      <rect x="78.00" y="10.00" width="1.00" height="50.00" />
      <rect x="80.00" y="10.00" width="4.00" height="50.00" />
      <rect x="90.00" y="10.00" width="3.00" height="50.00" />
      <rect x="95.00" y="10.00" width="1.00" height="50.00" />
      <rect x="97.00" y="10.00" width="3.00" height="50.00" />
      <rect x="103.00" y="10.00" width="3.00" height="50.00" />
      <rect x="107.00" y="10.00" width="3.00" height="50.00" />
      <rect x="111.00" y="10.00" width="4.00" height="50.00" />
      <rect x="116.00" y="10.00" width="1.00" height="50.00" />
      <rect x="118.00" y="10.00" width="4.00" height="50.00" />
      <rect x="125.00" y="10.00" width="2.00" height="50.00" />
      <rect x="130.00" y="10.00" width="6.00" height="50.00" />
      <rect x="140.00" y="10.00" width="1.00" height="50.00" />
      <rect x="142.00" y="10.00" width="1.00" height="50.00" />
      <rect x="144.00" y="10.00" width="2.00" height="50.00" />
      <rect x="150.00" y="10.00" width="1.00" height="50.00" />
      <rect x="153.00" y="10.00" width="5.00" height="50.00" />
      <rect x="159.00" y="10.00" width="1.00" height="50.00" />
      <text x="85.50" y="69.00" text-anchor="middle"
         font-family="Helvetica" font-size="8.0" fill="#000000" >
         (01)90012345678908(3103)001750
      </text>
   </g>
</svg>
