<?xml version="1.0" standalone="no"?>
<!DOCTYPE svg PUBLIC "-//W3C//DTD SVG 1.1//EN"
   "http://www.w3.org/Graphics/SVG/1.1/DTD/svg11.dtd">
<svg width="180" height="79" version="1.1"
   xmlns="http://www.w3.org/2000/svg">
   <desc>Telepen
   </desc>

   <g id="barcode" fill="#000000">
      <rect x="0" y="0" width="180" height="79" fill="#FFFFFF" />
      <rect x="10.00" y="10.00" width="1.00" height="50.00" />
      <rect x="12.00" y="10.00" width="1.00" height="50.00" />
      <rect x="14.00" y="10.00" width="1.00" height="50.00" />
      <rect x="16.00" y="10.00" width="1.00" height="50.00" />
      <rect x="18.00" y="10.00" width="1.00" height="50.00" />
      <rect x="20.00" y="10.00" width="3.00" height="50.00" />
      <rect x="26.00" y="10.00" width="3.00" height="50.00" />
      <rect x="30.00" y="10.00" width="1.00" height="50.00" />
      <rect x="32.00" y="10.00" width="3.00" height="50.00" />
      <rect x="38.00" y="10.00" width="1.00" height="50.00" />
      <rect x="40.00" y="10.00" width="1.00" height="50.00" />
      <rect x="42.00" y="10.00" width="1.00" height="50.00" />
      <rect x="44.00" y="10.00" width="3.00" height="50.00" />
      <rect x="50.00" y="10.00" width="1.00" height="50.00" />
      <rect x="54.00" y="10.00" width="1.00" height="50.00" />
      <rect x="58.00" y="10.00" width="3.00" height="50.00" />
      <rect x="62.00" y="10.00" width="1.00" height="50.00" />
      <rect x="64.00" y="10.00" width="1.00" height="50.00" />
      <rect x="66.00" y="10.00" width="1.00" height="50.00" />
      <rect x="70.00" y="10.00" width="1.00" height="50.00" />
      <rect x="74.00" y="10.00" width="1.00" height="50.00" />
      <rect x="76.00" y="10.00" width="3.00" height="50.00" />
      <rect x="82.00" y="10.00" width="1.00" height="50.00" />
      <rect x="86.00" y="10.00" width="1.00" height="50.00" />
      <rect x="90.00" y="10.00" width="3.00" height="50.00" />
      <rect x="94.00" y="10.00" width="3.00" height="50.00" />
      <rect x="98.00" y="10.00" width="1.00" height="50.00" />
      <rect x="100.00" y="10.00" width="1.00" height="50.00" />
      <rect x="102.00" y="10.00" width="1.00" height="50.00" />
      <rect x="104.00" y="10.00" width="1.00" height="50.00" />
      <rect x="106.00" y="10.00" width="1.00" height="50.00" />
      <rect x="108.00" y="10.00" width="3.00" height="50.00" />
      <rect x="114.00" y="10.00" width="1.00" height="50.00" />
      <rect x="118.00" y="10.00" width="1.00" height="50.00" />
      <rect x="122.00" y="10.00" width="1.00" height="50.00" />
      <rect x="126.00" y="10.00" width="1.00" height="50.00" />
      <rect x="128.00" y="10.00" width="1.00" height="50.00" />
      <rect x="132.00" y="10.00" width="1.00" height="50.00" />
      <rect x="134.00" y="10.00" width="1.00" height="50.00" />
      <rect x="136.00" y="10.00" width="1.00" height="50.00" />
      <rect x="138.00" y="10.00" width="1.00" height="50.00" />
      <rect x="140.00" y="10.00" width="1.00" height="50.00" />
      <rect x="144.00" y="10.00" width="1.00" height="50.00" />
      <rect x="148.00" y="10.00" width="1.00" height="50.00" />
      <rect x="150.00" y="10.00" width="3.00" height="50.00" />
      <rect x="154.00" y="10.00" width="3.00" height="50.00" />
      <rect x="160.00" y="10.00" width="1.00" height="50.00" />
      <rect x="162.00" y="10.00" width="1.00" height="50.00" />
      <rect x="164.00" y="10.00" width="1.00" height="50.00" />
      <rect x="166.00" y="10.00" width="1.00" height="50.00" />
      <rect x="168.00" y="10.00" width="1.00" height="50.00" />
      <text x="90.00" y="69.00" text-anchor="middle"
         font-family="Helvetica" font-size="8.0" fill="#000000" >
         Telepen
      </text>
   </g>
</svg>
