<?xml version="1.0" standalone="no"?>
<!DOCTYPE svg PUBLIC "-//W3C//DTD SVG 1.1//EN"
   "http://www.w3.org/Graphics/SVG/1.1/DTD/svg11.dtd">
<svg width="98" height="79" version="1.1"
   xmlns="http://www.w3.org/2000/svg">
   <desc>(01)00312345678906
   </desc>

   <g id="barcode" fill="#000000">
      <rect x="0" y="0" width="98" height="79" fill="#FFFFFF" />
      <rect x="13.00" y="10.00" width="1.00" height="50.00" />
      <rect x="15.00" y="10.00" width="1.00" height="50.00" />
      <rect x="17.00" y="10.00" width="1.00" height="50.00" />
      <rect x="23.00" y="10.00" width="1.00" height="50.00" />
      <rect x="26.00" y="10.00" width="1.00" height="50.00" />
      <rect x="30.00" y="10.00" width="1.00" height="50.00" />
      <rect x="35.00" y="10.00" width="1.00" height="50.00" />
      <rect x="37.00" y="10.00" width="3.00" height="50.00" />
      <rect x="42.00" y="10.00" width="1.00" height="50.00" />
      <rect x="44.00" y="10.00" width="1.00" height="50.00" />
      <rect x="46.00" y="10.00" width="2.00" height="50.00" />
      <rect x="49.00" y="10.00" width="2.00" height="50.00" />
      <rect x="52.00" y="10.00" width="1.00" height="50.00" />
      <rect x="55.00" y="10.00" width="1.00" height="50.00" />
      <rect x="57.00" y="10.00" width="1.00" height="50.00" />
      <rect x="59.00" y="10.00" width="2.00" height="50.00" />
      <rect x="66.00" y="10.00" width="1.00" height="50.00" />
      <rect x="68.00" y="10.00" width="1.00" height="50.00" />
      <rect x="71.00" y="10.00" width="1.00" height="50.00" />
      <rect x="74.00" y="10.00" width="1.00" height="50.00" />
      <rect x="76.00" y="10.00" width="2.00" height="50.00" />
      <rect x="83.00" y="10.00" width="1.00" height="50.00" />
      <rect x="85.00" y="10.00" width="1.00" height="50.00" />
      <text x="49.00" y="69.00" text-anchor="middle"
         font-family="Helvetica" font-size="8.0" fill="#000000" >
         (01)00312345678906
      </text>
   </g>
</svg>
