<?xml version="1.0" standalone="no"?>
<!DOCTYPE svg PUBLIC "-//W3C//DTD SVG 1.1//EN"
   "http://www.w3.org/Graphics/SVG/1.1/DTD/svg11.dtd">
<svg width="135" height="79" version="1.1"
   xmlns="http://www.w3.org/2000/svg">
   <desc>109876543212
   </desc>

   <g id="barcode" fill="#000000">
      <rect x="0" y="0" width="135" height="79" fill="#FFFFFF" />
      <rect x="20.00" y="10.00" width="1.00" height="50.00" />
      <rect x="22.00" y="10.00" width="1.00" height="50.00" />
      <rect x="25.00" y="10.00" width="2.00" height="50.00" />
      <rect x="29.00" y="10.00" width="1.00" height="50.00" />
      <rect x="33.00" y="10.00" width="2.00" height="50.00" />
      <rect x="36.00" y="10.00" width="1.00" height="50.00" />
      <rect x="40.00" y="10.00" width="1.00" height="50.00" />
      <rect x="42.00" y="10.00" width="2.00" height="50.00" />
      <rect x="45.00" y="10.00" width="2.00" height="50.00" />
      <rect x="48.00" y="10.00" width="3.00" height="50.00" />
      <rect x="52.00" y="10.00" width="3.00" height="50.00" />
      <rect x="56.00" y="10.00" width="2.00" height="50.00" />
      <rect x="59.00" y="10.00" width="1.00" height="50.00" />
      <rect x="61.00" y="10.00" width="4.00" height="50.00" />
      <rect x="66.00" y="10.00" width="1.00" height="50.00" />
      <rect x="68.00" y="10.00" width="1.00" height="50.00" />
      <rect x="70.00" y="10.00" width="1.00" height="50.00" />
      <rect x="73.00" y="10.00" width="3.00" height="50.00" />
      <rect x="77.00" y="10.00" width="1.00" height="50.00" />
      <rect x="79.00" y="10.00" width="3.00" height="50.00" />
      <rect x="84.00" y="10.00" width="1.00" height="50.00" />
      <rect x="89.00" y="10.00" width="1.00" height="50.00" />
      <rect x="91.00" y="10.00" width="2.00" height="50.00" />
      <rect x="94.00" y="10.00" width="2.00" height="50.00" />
      <rect x="98.00" y="10.00" width="2.00" height="50.00" />
      <rect x="102.00" y="10.00" width="2.00" height="50.00" />
      <rect x="105.00" y="10.00" width="2.00" height="50.00" />
      <rect x="108.00" y="10.00" width="2.00" height="50.00" />
      <rect x="112.00" y="10.00" width="1.00" height="50.00" />
      <rect x="114.00" y="10.00" width="1.00" height="50.00" />
      <rect x="20.00" y="60.00" width="1.00" height="5.00" />
      <rect x="22.00" y="60.00" width="1.00" height="5.00" />
      <rect x="25.00" y="60.00" width="2.00" height="5.00" />
      <rect x="29.00" y="60.00" width="1.00" height="5.00" />
      <rect x="66.00" y="60.00" width="1.00" height="5.00" />
      <rect x="68.00" y="60.00" width="1.00" height="5.00" />
      <rect x="105.00" y="60.00" width="2.00" height="5.00" />
      <rect x="108.00" y="60.00" width="2.00" height="5.00" />
      <rect x="112.00" y="60.00" width="1.00" height="5.00" />
      <rect x="114.00" y="60.00" width="1.00" height="5.00" />
      <text x="15.00" y="69.00" text-anchor="middle"
         font-family="Helvetica" font-size="8.0" fill="#000000" >
         1
      </text>
      <text x="47.00" y="69.00" text-anchor="middle"
         font-family="Helvetica" font-size="11.0" fill="#000000" >
         09876
      </text>
      <text x="88.00" y="69.00" text-anchor="middle"
         font-family="Helvetica" font-size="11.0" fill="#000000" >
         54321
      </text>
      <text x="120.00" y="69.00" text-anchor="middle"
         font-family="Helvetica" font-size="8.0" fill="#000000" >
         2
      </text>
   </g>
</svg>
